<?xml version="1.0" encoding="UTF-8" standalone="no"?>
<!DOCTYPE svg PUBLIC "-//W3C//DTD SVG 1.1//EN" "http://www.w3.org/Graphics/SVG/1.1/DTD/svg11.dtd">
<svg width="100%" height="100%" viewBox="0 0 18 18" version="1.1" xmlns="http://www.w3.org/2000/svg" xmlns:xlink="http://www.w3.org/1999/xlink" xml:space="preserve" xmlns:serif="http://www.serif.com/" style="fill-rule:evenodd;clip-rule:evenodd;stroke-linejoin:round;stroke-miterlimit:1.41421;">
    <rect x="0" y="0" width="18" height="18" style="fill:none;fill-rule:nonzero;"/>
    <g transform="matrix(1.82434,0,0,1.82434,-7.41908,-6.34703)">
        <path d="M9,11.3L11.46,13.09C11.85,13.38 12.38,12.99 12.23,12.53L11.29,9.64L13.72,7.91C14.12,7.63 13.92,7 13.43,7L10.45,7L9.48,3.98C9.33,3.52 8.68,3.52 8.53,3.98L7.55,7L4.57,7C4.08,7 3.88,7.63 4.28,7.91L6.71,9.64L5.77,12.53C5.62,12.99 6.15,13.37 6.54,13.09L9,11.3Z" style="fill:rgb(228,190,0);fill-rule:nonzero;"/>
    </g>
</svg>
